#!OML:ASF H:\charlestonDancing\Project 1\Capture day 1\Session 1\femaleDancer.ASF
:FULLY-SPECIFIED
:DEGREES
280
root -14.5159 17.2808 2.29885 -175.731 -53.177 178.793
lowerback 12.5887 -2.79364 3.41168
upperback 1.78502 -3.37255 -0.389368
thorax -5.39137 -1.77598 -1.74811
lowerneck 1.47054 6.61113 6.6359
upperneck 10.4622 8.84802 -4.36932
head 3.73437 4.38228 -2.35044
rclavicle 2.46741e-014 -1.635e-014
rhumerus -219.907 183.683 -258.397
rradius 66.8374
rwrist 13.9
rhand -27.1311 -42.6761
rfingers 7.12502
rthumb 179.453 107.345
lclavicle 2.46741e-014 -1.635e-014
lhumerus -43.7005 -23.8533 74.179
lradius 76.3277
lwrist -13.6807
lhand -20.2043 5.61845
lfingers 7.12502
lthumb 6.14261 35.5094
rfemur -28.2805 20.2032 11.6253
rtibia 47.0027
rfoot -23.4275 11.1458
rtoes -19.2242
lfemur -12.9863 15.6861 -24.1123
ltibia 43.7889
lfoot -33.053 7.49424
ltoes -14.4186
281
root -14.5351 17.2516 2.29613 -176.06 -52.2067 178.889
lowerback 12.4545 -2.86312 3.19047
upperback 1.727 -3.49269 -0.324944
thorax -5.36849 -1.82948 -1.53992
lowerneck 1.40021 6.76312 6.7379
upperneck 10.3171 9.04907 -4.35202
head 3.71512 4.48827 -2.35274
rclavicle 9.85102e-014 1.49089e-014
rhumerus -220.931 184.715 -257.332
rradius 67.5188
rwrist 13.509
rhand -26.9184 -42.7884
rfingers 7.12502
rthumb 179.659 107.232
lclavicle 9.85102e-014 1.49089e-014
lhumerus -42.3834 -25.6239 73.4202
lradius 77.7566
lwrist -13.4602
lhand -19.1401 5.36291
lfingers 7.12502
lthumb 7.16996 35.2215
rfemur -28.4104 20.8155 11.68
rtibia 47.4491
rfoot -23.4251 11.613
rtoes -18.0658
lfemur -12.7385 16.224 -24.1097
ltibia 44.0663
lfoot -33.5372 7.69211
ltoes -14.0186
282
root -14.5545 17.2252 2.2971 -176.591 -51.4167 179.026
lowerback 12.4861 -3.02254 3.09114
upperback 1.74445 -3.71639 -0.278145
thorax -5.37023 -1.9378 -1.39477
lowerneck 1.49207 6.92742 6.959
upperneck 9.92888 9.29267 -4.53414
head 3.60369 4.61784 -2.44983
rclavicle 9.48824e-014 -9.39258e-015
rhumerus -221.788 185.661 -256.321
rradius 67.6222
rwrist 12.8807
rhand -27.6623 -42.0132
rfingers 7.12502
rthumb 178.94 108.01
lclavicle 9.48824e-014 -9.39258e-015
lhumerus -40.7806 -27.1659 72.4787
lradius 79.0044
lwrist -13.3687
lhand -18.3063 4.93974
lfingers 7.12502
lthumb 7.97468 34.7693
rfemur -28.2489 21.3269 11.8721
rtibia 47.8303
rfoot -23.4749 11.901
rtoes -17.3039
lfemur -12.3161 16.6237 -24.017
ltibia 44.3963
lfoot -34.0185 8.0182
ltoes -14.1728
283
root -14.5724 17.2026 2.30123 -177.083 -50.7385 179.176
lowerback 12.4637 -3.16267 3.1028
upperback 1.73608 -3.89926 -0.227841
thorax -5.37321 -2.02785 -1.31723
lowerneck 1.7163 7.05795 6.98589
upperneck 9.51506 9.48405 -4.55372
head 3.43258 4.71964 -2.46454
rclavicle 5.06777e-014 -1.39646e-014
rhumerus -222.661 186.654 -255.245
rradius 67.3728
rwrist 11.6966
rhand -27.1616 -42.1809
rfingers 7.12502
rthumb 179.424 107.84
lclavicle 5.06777e-014 -1.39646e-014
lhumerus -38.9831 -28.7049 71.5614
lradius 80.0966
lwrist -13.5064
lhand -18.5789 5.07337
lfingers 7.12502
lthumb 7.71163 34.9128
rfemur -28.0884 21.7564 12.0791
rtibia 48.1553
rfoot -23.5934 12.0496
rtoes -17.1332
lfemur -12.0061 16.9189 -23.9162
ltibia 44.7747
lfoot -34.406 8.61949
ltoes -14.9312
284
root -14.5883 17.1803 2.30622 -177.557 -50.0908 179.406
lowerback 12.3883 -3.18484 3.23377
upperback 1.71956 -3.91104 -0.183047
thorax -5.35498 -2.03591 -1.34496
lowerneck 1.84525 7.06983 7.01968
upperneck 9.23182 9.50691 -4.52466
head 3.31148 4.73723 -2.467
rclavicle 1.16016e-013 -6.75868e-015
rhumerus -223.646 188.175 -253.908
rradius 66.919
rwrist 10.2877
rhand -27.3638 -42.4334
rfingers 7.12502
rthumb 179.229 107.588
lclavicle 1.16016e-013 -6.75868e-015
lhumerus -36.8505 -30.4047 70.6322
lradius 81.1119
lwrist -13.7913
lhand -18.6281 5.3195
lfingers 7.12502
lthumb 7.66412 35.1606
rfemur -28.0085 22.2118 12.3103
rtibia 48.4671
rfoot -23.7137 12.2723
rtoes -16.7294
lfemur -11.8075 17.2197 -23.764
ltibia 45.1736
lfoot -34.7481 9.10186
ltoes -14.9945
285
root -14.6006 17.1547 2.31024 -178.086 -49.4968 179.823
lowerback 12.295 -3.26025 3.4079
upperback 1.7005 -3.98497 -0.0688616
thorax -5.33065 -2.07476 -1.31422
lowerneck 2.00513 7.11655 7.1219
upperneck 8.86073 9.59183 -4.66075
head 3.17474 4.78482 -2.53737
rclavicle -7.80354e-014 2.60408e-014
rhumerus -224.565 189.698 -252.48
rradius 66.303
rwrist 8.83228
rhand -27.0393 -42.7138
rfingers 7.12502
rthumb 179.542 107.307
lclavicle -7.80354e-014 2.60408e-014
lhumerus -34.517 -31.9263 69.5775
lradius 82.001
lwrist -13.9405
lhand -18.2921 5.24791
lfingers 7.12502
lthumb 7.98846 35.077
rfemur -28.0458 22.6736 12.6551
rtibia 48.8216
rfoot -23.7617 12.561
rtoes -15.6645
lfemur -11.6893 17.5551 -23.4707
ltibia 45.5665
lfoot -35.1077 9.25716
ltoes -14.882
286
root -14.6064 17.13 2.31427 -178.372 -48.9604 180.042
lowerback 12.1845 -3.39079 3.36201
upperback 1.65585 -4.15977 0.0549185
thorax -5.31319 -2.15848 -1.13345
lowerneck 2.20778 7.21195 7.21669
upperneck 8.41499 9.75223 -4.90871
head 3.0179 4.86814 -2.64419
rclavicle -2.88859e-014 6.26172e-015
rhumerus -225.375 191.091 -251.073
rradius 65.4372
rwrist 7.32703
rhand -26.8327 -43.3853
rfingers 7.12502
rthumb 179.742 106.635
lclavicle -2.88859e-014 6.26172e-015
lhumerus -32.9185 -32.6995 69.1666
lradius 83.0626
lwrist -14.9836
lhand -18.2597 4.99245
lfingers 7.12502
lthumb 8.0197 34.8203
rfemur -28.2245 23.0212 12.8526
rtibia 49.2324
rfoot -23.8412 12.6075
rtoes -15.2687
lfemur -11.6895 17.8472 -23.3291
ltibia 45.9338
lfoot -35.4558 9.33615
ltoes -14.9232
287
root -14.6113 17.1014 2.31859 -178.372 -48.4549 179.827
lowerback 12.1183 -3.46385 3.02059
upperback 1.66109 -4.30416 0.0569597
thorax -5.25309 -2.22232 -0.920394
lowerneck 2.21349 7.27424 7.57369
upperneck 8.05118 9.8668 -5.27051
head 2.94863 4.93305 -2.83086
rclavicle 2.34442e-014 -4.96962e-015
rhumerus -226.216 192.696 -249.676
rradius 64.4669
rwrist 5.64765
rhand -26.7766 -44.4738
rfingers 7.12502
rthumb 179.796 105.547
lclavicle 2.34442e-014 -4.96962e-015
lhumerus -30.7106 -33.8429 68.2696
lradius 83.9204
lwrist -15.7581
lhand -18.2367 4.82325
lfingers 7.12502
lthumb 8.04188 34.6502
rfemur -28.3678 23.1456 12.7767
rtibia 49.6946
rfoot -24.1178 12.4914
rtoes -16.2813
lfemur -11.5805 18.1277 -23.5006
ltibia 46.2687
lfoot -35.9333 8.8993
ltoes -13.2063
288
root -14.615 17.0732 2.32282 -178.425 -47.9503 179.713
lowerback 12.1016 -3.67901 2.59574
upperback 1.75539 -4.65377 0.00878931
thorax -5.1301 -2.38702 -0.67938
lowerneck 2.00856 7.53492 8.18283
upperneck 7.6401 10.2372 -5.63466
head 2.9409 5.13218 -3.04681
rclavicle -9.43606e-014 -6.21202e-015
rhumerus -226.815 194.021 -248.665
rradius 63.5294
rwrist 3.85576
rhand -25.8972 -45.8941
rfingers 7.12502
rthumb 180.645 104.127
lclavicle -9.43606e-014 -6.21202e-015
lhumerus -28.4163 -34.6296 66.8526
lradius 84.7722
lwrist -16.3159
lhand -18.3702 4.70495
lfingers 7.12502
lthumb 7.91305 34.5368
rfemur -28.5458 23.214 12.7586
rtibia 50.1642
rfoot -24.1383 12.9274
rtoes -13.9442
lfemur -11.501 18.4273 -23.6088
ltibia 46.5841
lfoot -36.3662 8.33092
ltoes -11.2631
289
root -14.6111 17.0501 2.32952 -178.673 -47.5028 179.925
lowerback 12.1898 -4.27497 2.1355
upperback 1.97468 -5.51942 -0.0757947
thorax -4.94394 -2.80841 -0.369057
lowerneck 1.59049 8.21729 9.22636
upperneck 7.35266 11.1937 -6.40623
head 2.81486 5.60704 -3.10183
rclavicle -6.56238e-014 -1.08835e-014
rhumerus -226.749 194.568 -248.605
rradius 62.5714
rwrist 1.80364
rhand -25.0859 -47.4741
rfingers 7.12502
rthumb 181.429 102.551
lclavicle -6.56238e-014 -1.08835e-014
lhumerus -26.3884 -34.447 64.758
lradius 85.6161
lwrist -16.7249
lhand -18.6439 4.48459
lfingers 7.12502
lthumb 7.64887 34.3263
rfemur -28.8053 23.3523 12.9672
rtibia 50.6162
rfoot -24.0787 13.1416
rtoes -12.4121
lfemur -11.5767 18.6979 -23.4621
ltibia 46.9136
lfoot -36.5919 8.08502
ltoes -10.5348
290
root -14.6053 17.0282 2.33684 -178.985 -47.2176 180.041
lowerback 12.3545 -4.58661 1.96252
upperback 2.03454 -5.95672 -0.0778691
thorax -4.96648 -3.02238 -0.191087
lowerneck 1.84779 8.52815 9.49531
upperneck 6.7324 11.6441 -6.69445
head 2.65555 5.84066 -3.23054
rclavicle 2.39287e-014 -1.2921e-014
rhumerus -227.46 195.483 -247.652
rradius 61.7294
rwrist -0.973573
rhand -26.0481 -49.4494
rfingers 7.12502
rthumb 180.499 100.571
lclavicle 2.39287e-014 -1.2921e-014
lhumerus -24.4235 -35.2278 63.5929
lradius 86.2908
lwrist -16.915
lhand -19.2757 4.36808
lfingers 7.12502
lthumb 7.039 34.231
rfemur -28.8301 23.3906 13.2121
rtibia 51.0459
rfoot -24.0833 13.1479
rtoes -11.4162
lfemur -11.5082 18.9637 -23.2795
ltibia 47.2889
lfoot -36.7032 7.88743
ltoes -10.3017
291
root -14.5928 17.0073 2.34349 -179.171 -46.8534 180.031
lowerback 12.5936 -4.88409 1.59858
upperback 2.0388 -6.39671 -0.0700371
thorax -5.06376 -3.23324 0.113369
lowerneck 2.2181 8.89565 9.73206
upperneck 6.11415 12.1768 -6.99438
head 2.48721 6.1156 -3.36036
rclavicle 9.0447e-015 -1.89839e-014
rhumerus -228.133 196.178 -246.754
rradius 60.8579
rwrist -3.67624
rhand -27.0963 -51.2603
rfingers 7.12502
rthumb 179.487 98.7605
lclavicle 9.0447e-015 -1.89839e-014
lhumerus -22.7923 -36.0174 62.6481
lradius 86.9161
lwrist -16.7824
lhand -20.3453 4.52476
lfingers 7.12502
lthumb 6.00649 34.4196
rfemur -28.9364 23.4459 13.3843
rtibia 51.4686
rfoot -23.9888 13.263
rtoes -9.55369
lfemur -11.4918 19.4051 -23.1535
ltibia 47.6747
lfoot -36.6682 7.86433
ltoes -10.8293
292
root -14.5702 16.9878 2.3508 -179.275 -46.3737 180.232
lowerback 12.7863 -5.04609 1.31449
upperback 1.97538 -6.6431 -0.0366506
thorax -5.20468 -3.34769 0.368011
lowerneck 2.47419 9.21239 10.1063
upperneck 5.519 12.6338 -7.26856
head 2.34777 6.35501 -3.50098
rclavicle 1.40938e-013 -8.74653e-015
rhumerus -228.927 197.003 -245.809
rradius 60.1339
rwrist -5.97792
rhand -26.4549 -52.2721
rfingers 7.12502
rthumb 180.106 97.7481
lclavicle 1.40938e-013 -8.74653e-015
lhumerus -20.9351 -37.0011 61.565
lradius 87.3515
lwrist -17.186
lhand -20.8905 4.43744
lfingers 7.12502
lthumb 5.48011 34.3466
rfemur -29.3945 23.5508 13.6415
rtibia 51.9197
rfoot -24.2255 13.5615
rtoes -4.7112
lfemur -11.757 19.9775 -22.9254
ltibia 47.9915
lfoot -36.4904 7.78792
ltoes -11.2625
